<?xml version="1.0" encoding="UTF-8"?>
<svg width="278px" height="99px" viewBox="0 0 278 99" version="1.1" xmlns="http://www.w3.org/2000/svg" xmlns:xlink="http://www.w3.org/1999/xlink">
    <title>Group 80</title>
    <defs>
        <polygon id="path-1" points="0.120695652 0.0846263297 14.801087 0.0846263297 14.801087 14.8671053 0.120695652 14.8671053"></polygon>
    </defs>
    <g id="Page-1" stroke="none" stroke-width="1" fill="none" fill-rule="evenodd">
        <g id="Desktop-HD-Copy-6" transform="translate(-419.000000, -93.000000)">
            <g id="Group-80" transform="translate(419.000000, 93.500000)">
                <path d="M58,25.6057921 C55.1245116,25.1794883 53.5133273,25.3228216 51.1390466,28.2239874 C50.9511699,28.057655 50.7567868,27.8997419 50.5784666,27.7254009 C48.5655028,25.7587768 46.1647892,24.4823296 43.5113369,23.643891 C42.0235736,23.1736426 40.5402836,22.6875823 38.994368,22.4491726 C36.3134662,22.0356004 33.6258544,21.8649556 30.9329561,22.3360254 C29.0771661,22.6606817 27.3494738,23.3112262 25.8804169,24.5346935 C23.6106477,26.4247225 22.4512618,28.8813085 22.1877466,31.8307312 C21.8892586,35.1664147 23.2283879,37.8028861 25.5099502,40.0405704 C26.0138012,40.5348446 26.6662861,40.8948208 27.2929482,41.2369316 C29.3355982,42.3521802 31.4886562,43.2236799 33.6470007,44.0785463 C36.7062991,45.2905141 39.7812539,46.4634656 42.8297758,47.7029501 C45.2986048,48.7066943 47.6698355,49.9184567 49.8556296,51.464116 C50.7870829,52.1228745 51.6847834,52.8346129 52.5635743,53.5644221 C54.6440436,55.2928417 56.0484417,57.4892509 56.7928317,60.0953307 C57.5843941,62.8669215 57.8533993,65.689028 57.4745961,68.5657573 C57.1443887,71.0701895 56.2580746,73.3592109 54.7770212,75.3734759 C51.2470146,80.1751435 46.6007281,83.1440743 40.6750912,83.9845664 C37.3193381,84.4603592 33.949962,84.6032819 30.5752992,84.4277088 C24.908501,84.1334441 19.5172145,82.7148956 14.38863,80.2427032 C13.4335905,79.7825169 13.0960632,79.1180086 13.0919966,78.1362367 C13.0806101,75.4942209 13.0549906,72.8524105 13.0332343,70.2106 C13.0228645,68.9750172 12.992975,67.7394343 13.0015149,66.5038515 C13.0068015,65.7582305 13.1739385,65.5816307 13.8862023,65.5530872 C14.6444187,65.5229009 15.405685,65.5214635 16.1641047,65.5485695 C16.9347242,65.5760862 17.1317507,65.7769172 17.150457,66.5531351 C17.1789232,67.7501125 17.318204,68.9298405 17.5780593,70.0976583 C17.9745522,71.8790578 18.7870576,73.4499751 19.9200106,74.8594882 C21.9907201,77.434971 24.6362426,79.0909026 27.8433616,79.7814901 C31.5287121,80.5749573 35.2183325,80.5579134 38.8770468,79.601194 C40.9077003,79.0701624 42.7362442,78.1288441 44.2620301,76.6429413 C45.5348739,75.4032515 46.4488408,73.9419904 46.8955561,72.2069996 C47.3987971,70.2524912 47.60843,68.2723141 47.3229551,66.2574331 C47.1068157,64.7310765 46.4583973,63.4156131 45.4090128,62.307141 C44.0873699,60.9105648 42.5916767,59.7523984 40.8664244,58.8913715 C38.7430525,57.8313617 36.5318423,57.0130474 34.2677663,56.3280042 C30.6247084,55.225898 27.0690822,53.9007832 23.7692448,51.9657828 C22.5683797,51.2616422 21.4075706,50.4784425 20.2758376,49.6640297 C17.3684264,47.5717323 15.5569623,44.7184127 14.7424236,41.2262535 C14.1179982,38.5493285 13.9164984,35.8405744 14.3760235,33.1096426 C14.830872,30.4039687 15.9493886,27.9954344 17.650648,25.8686383 C20.8421107,21.878714 24.9243607,19.3315693 29.8915015,18.2419893 C33.2997136,17.4945202 36.7400518,17.3518029 40.2104828,17.6358001 C42.6571489,17.836015 45.062539,18.2233026 47.4038803,18.9857621 C49.425384,19.6439046 51.3130968,20.565304 53.0418057,21.8177254 C53.5210538,22.1647647 54.045441,22.4483512 54.5216391,22.7990867 C55.5425575,23.5510734 56.5486327,24.3240058 57.5526747,25.0989916 C57.7035453,25.2154243 57.8115134,25.3889439 58,25.6057921" id="Fill-1" fill="#FFFFFF"></path>
                <path d="M0.00480180483,97.4672864 L0.00480180483,96.1458077 C0.00501047182,71.1872678 0.0104358134,46.2291433 0,21.2708111 C-0.00187553865,17.1433194 1.06962942,13.3396543 3.39814429,9.92940028 C6.72220935,5.06182238 11.3406357,2.09940044 17.1250932,0.928099259 C18.6575435,0.617981746 20.2102345,0.5 21.7727329,0.5 C48.0578868,0.5 74.3432494,0.5 100.628403,0.5 L101.812797,0.5 C102.118703,1.3487208 101.951143,2.16960788 101.977644,2.97180067 C102.00644,3.83298434 101.988286,4.69603743 101.983069,5.55805195 C101.97827,6.36959188 101.963663,7.18113182 101.952813,8.04854691 C100.979799,8.22821982 100.096094,8.12290864 99.1466591,8.11958522 C98.9052314,6.51042221 99.1696125,4.96274264 98.9676228,3.37788221 C98.6807057,3.35108706 98.432392,3.32034534 98.1832437,3.30725933 C97.9672733,3.29562733 97.7504683,3.30414362 97.533872,3.30414362 C72.3310737,3.30414362 47.1284841,3.30601305 21.9258944,3.30123562 C19.656641,3.30082019 17.4241129,3.55651655 15.2863197,4.32069761 C9.35516935,6.44146104 5.3573186,10.4353924 3.54713252,16.5018975 C3.12520788,17.9160167 2.97934966,19.3733406 2.92655691,20.8408424 C2.90798555,21.357428 2.9196709,21.8752598 2.9196709,22.3924685 C2.91946223,45.8851683 2.91925357,69.3780759 2.92071424,92.870568 C2.92071424,93.4216341 2.93824226,93.972908 2.94763228,94.539345 C3.19427665,94.6039442 3.35661956,94.6834988 3.51896248,94.6834988 C35.3006134,94.6888993 67.0822644,94.6886916 98.9503035,94.6886916 C98.9849422,94.3013044 99.038987,93.97 99.0398216,93.6386956 C99.047125,91.1384381 99.0437863,88.6383883 99.0437863,86.1383384 L99.0437863,84.8137441 C99.9788231,84.5162971 100.8763,84.6970086 101.829908,84.6801838 C101.882909,84.8922601 101.974931,85.0887579 101.97514,85.2854633 C101.981609,89.207941 101.977644,93.1306263 101.973053,97.053104 C101.973053,97.1376437 101.942171,97.2219757 101.912123,97.3765152 C101.69177,97.4130729 101.448882,97.4724792 101.202864,97.4893041 C100.901131,97.5096601 100.596895,97.4947047 100.293702,97.4947047 C67.4263563,97.4947047 34.559011,97.4947047 1.69145703,97.4936661 C1.17709292,97.4936661 0.662520138,97.4778798 0.00480180483,97.4672864" id="Fill-3" fill="#FFFFFF"></path>
                <path d="M55,44.0938723 L66.7131823,44.0938723 C67.1608836,44.4132785 67.284064,44.889702 67.4697725,45.3101365 C68.7866144,48.2903662 70.0853233,51.2782401 71.3854911,54.2659075 C73.4730963,59.0623728 75.4985902,63.8865227 77.8775763,68.5526223 C78.0509876,68.8926887 78.2631663,69.2178798 78.4957709,69.5211711 C78.6552175,69.7294257 79.0258008,69.7459538 79.1906666,69.5441039 C79.4868414,69.1819311 79.7930207,68.8086018 79.9939444,68.3922994 C80.8691295,66.5770968 81.7486916,64.7618941 82.5523862,62.9148748 C84.7250296,57.9219313 86.8416061,52.905022 89.0163337,47.9129049 C90.3177521,44.9256507 91.7215082,41.9824028 93.0143811,38.991843 C94.1882421,36.2773032 95.3143733,33.5406569 96.3827703,30.7837637 C96.9230132,29.3894087 97.340701,27.941544 97.7114926,26.492233 C97.8882388,25.8009436 97.8865713,25.0476738 97.8584337,24.3264272 C97.8173736,23.2655274 97.0722469,22.5880804 95.998014,22.6141123 C94.6153091,22.6475817 93.2309367,22.6215499 91.8473981,22.6211367 C91.4186637,22.6211367 90.9899293,22.6211367 90.5145072,22.6211367 C90.115161,21.6030035 90.3706926,20.6396197 90.3054549,19.6371882 C90.6012129,19.5791331 90.8027618,19.5053763 91.0047276,19.5051697 C97.0578655,19.4987651 103.111212,19.4987651 109.16435,19.5026905 C109.373402,19.5028971 109.582246,19.5539277 109.828607,19.5863642 C110.108107,20.576193 109.975339,21.5313127 109.916771,22.5595694 C109.431761,22.5835352 109.052841,22.6139057 108.673504,22.6186575 C107.93859,22.627748 107.203468,22.6205169 106.468554,22.6236159 C105.600873,22.6273348 105.017902,23.0114073 104.658157,23.8186002 C103.680843,26.011884 102.662468,28.1874 101.664937,30.3720065 C96.9088401,40.7878317 92.0076785,51.1371312 87.1607079,61.5114294 C84.0388878,68.1931353 81.1225768,74.9690516 78.1060123,81.6991023 C77.8440195,82.2837852 77.5724391,82.8754925 77.217071,83.4060457 C76.0813521,85.1016259 74.0418936,84.6338796 73.2386158,83.3093561 C73.0387343,82.9800329 72.8651146,82.6333553 72.7033752,82.2835786 C68.0187693,72.1648466 63.3406245,62.042809 58.6526837,51.9255233 C57.6614048,49.7853362 56.6349016,47.661264 55.6292412,45.5274815 C55.4331114,45.1109725 55.2584495,44.6845465 55,44.0938723" id="Fill-5" fill="#FFFFFF"></path>
                <path d="M127.000065,51.3891453 C127.000065,38.4260573 126.999814,25.4627617 127.001318,12.4996736 C127.001318,12.0693077 126.989537,11.6368656 127.036413,11.2094062 C127.084042,10.7759261 127.463314,10.5157966 127.97344,10.5 C128.486073,10.4856938 128.884397,10.7327442 128.947818,11.1662242 C129.003719,11.5490486 128.997954,11.9391391 128.997954,12.3259079 C129.00046,20.164257 128.999959,28.0023984 128.999959,35.8405398 C128.999959,54.0579126 129.00021,72.2752854 128.998455,90.4926582 C128.998455,90.9230241 129.007229,91.3554662 128.958096,91.7825104 C128.90771,92.2166133 128.521168,92.4869155 128.027837,92.5 C127.545536,92.5122434 127.102592,92.2377891 127.048195,91.8263152 C126.992294,91.4003089 127.00182,90.9672441 127.001569,90.5370857 C126.999814,77.4878415 127.000065,64.4383896 127.000065,51.3891453" id="Fill-7" fill="#FFFFFF"></path>
                <path d="M184.976317,29.7164539 C184.976317,30.7161007 184.952716,31.624031 184.982942,32.5302823 C185.014411,33.4667559 184.845059,34.4181309 185.098052,35.3485181 C186.215609,35.660606 187.26381,35.6517911 188.255492,35.1191219 C189.217154,34.6026132 189.844253,33.8426466 189.881312,32.6660731 C189.919613,31.4588574 189.400791,30.5761124 188.410559,29.9750231 C187.364014,29.3401435 186.253496,29.2429702 184.976317,29.7164539 M188.933107,36.3704119 C189.334334,37.4407874 191.389952,40.9102732 192.024711,41.6398076 C192.463618,42.1441433 192.985545,42.4872931 193.626308,42.6755533 C193.772472,42.7185782 193.865222,42.9490238 194,43.1150369 C192.583903,43.7484474 191.360346,43.6099282 190.363903,42.6272815 C189.817339,42.088106 189.354209,41.4439918 188.935591,40.7927418 C188.327746,39.8472434 187.795468,38.8517942 187.228822,37.8790117 C186.967962,37.4313429 186.702547,36.9866124 186.440859,36.5437707 L185.05354,36.5437707 C184.904891,38.7854729 185.058716,40.9875082 184.959962,43.1962595 C184.263714,43.317149 183.640135,43.3198774 182.944509,43.1956299 C182.926497,42.720677 182.896891,42.2954651 182.89627,41.8698334 C182.892544,38.478422 182.896684,35.0868008 182.89068,31.6953894 C182.889852,31.2183377 182.890887,30.7337304 182.812836,30.2661232 C182.686133,29.5078356 182.407468,29.2731925 181.625303,29.1342536 C181.49922,29.1117967 181.35699,29.1382413 181.245814,29.0878707 C181.145196,29.0423272 181.023462,28.932981 181.00545,28.8339188 C180.966735,28.6221524 181.141056,28.5245593 181.313927,28.5193124 C181.913905,28.5016826 182.514711,28.4939172 183.114896,28.5054604 C184.786055,28.5377816 186.457629,28.5686336 188.128168,28.6259302 C188.956501,28.6542636 189.727694,28.9266847 190.438227,29.3542053 C191.700913,30.113962 192.255551,31.2412143 192.195926,32.7323944 C192.13775,34.1878952 191.455581,35.1938383 190.202832,35.8310266 C189.792909,36.039435 189.355658,36.1926456 188.933107,36.3704119" id="Fill-9" fill="#FFFFFF"></path>
                <path d="M231.517065,35.5738384 C231.301597,35.7097116 231.15227,35.7848488 231.025058,35.8887886 C230.828864,36.0490814 230.635105,36.2164705 230.463055,36.4028526 C228.951325,38.0391746 229.225429,40.2724203 231.080853,41.4758684 C232.871961,42.6375736 234.874277,42.2867244 236.346443,40.5529327 C236.319256,40.4769606 236.312966,40.3788647 236.262041,40.3277297 C234.707299,38.7644577 233.147891,37.2057775 231.517065,35.5738384 M238.03915,33.2466712 C239.42387,33.0392089 241.708,33.0592455 242.63135,33.2637858 C242.543093,33.368143 242.478371,33.5163304 242.403505,33.5219657 C241.357407,33.6010685 240.733116,34.244118 240.29731,35.150774 C240.167257,35.4218942 240.036597,35.6930144 239.911617,35.9666392 C239.358743,37.1750964 238.807898,38.3845972 238.247517,39.6130911 C239.394046,40.9150524 240.589267,42.2161789 243,42.9587853 C242.893686,43.0495761 242.814153,43.1257569 242.725491,43.1883713 C242.696072,43.2092428 242.643523,43.1971373 242.601525,43.1969286 C241.676755,43.1927543 240.723986,43.3305059 239.83533,43.1441238 C238.927197,42.9539849 238.333745,42.0848975 237.589141,41.5320126 C237.422772,41.4084536 237.261069,41.2786332 237.055136,41.1189665 C236.512001,41.568329 236.001937,42.0041249 235.47767,42.4207192 C234.354272,43.3129739 233.069778,43.619993 231.677754,43.4590741 C230.496531,43.3225748 229.516778,42.7732381 228.783739,41.8039677 C227.819202,40.5285131 227.724656,38.8214368 228.613109,37.4359896 C229.00083,36.8311348 229.536053,36.3220801 230.031509,35.7963281 C230.292425,35.5195726 230.610961,35.3004223 230.958714,35.0090568 C230.789504,34.7602691 230.63125,34.5242129 230.469344,34.2906613 C230.104143,33.7636571 229.687408,33.2667078 229.381654,32.7058918 C228.77542,31.5953216 228.832432,30.4647149 229.481678,29.3823213 C230.015278,28.4929886 230.812633,27.9248676 231.779199,27.6798367 C232.806022,27.4195697 233.846642,27.3870102 234.904305,27.9549225 C234.742399,28.3957276 234.600782,28.7818495 234.439485,29.2211936 C234.132513,29.0060089 233.90264,28.8271406 233.656535,28.6766574 C233.04178,28.3003451 232.371636,28.2805172 231.701695,28.4422709 C230.989959,28.614043 230.449258,29.2646063 230.427752,30.028919 C230.415984,30.4473916 230.487604,30.8998848 230.644032,31.284337 C230.852805,31.7965225 231.13401,32.2945154 231.464923,32.7342769 C233.221945,35.068123 235.408688,36.9697213 237.48445,39.1322127 C237.721831,38.7552743 237.937908,38.4933375 238.066946,38.1921624 C238.438842,37.324536 238.783957,36.4441781 239.120348,35.5611068 C239.210836,35.3229635 239.252429,35.0591483 239.280833,34.8030556 C239.362598,34.0629538 239.241067,33.8805373 238.517563,33.5576558 C238.414292,33.5117386 238.324412,33.4340968 238.03915,33.2466712" id="Fill-11" fill="#FFFFFF"></path>
                <path d="M195.338399,54.0431957 C195.0693,55.0494027 195.187613,55.7830865 195.167342,56.5013843 C195.146038,57.243288 195.162378,57.9862457 195.162378,58.7287817 L195.162378,60.825503 C195.162378,61.5680391 195.176443,62.3109967 195.158655,63.0529005 C195.14128,63.7846874 195.241184,64.524905 195.070955,65.2973702 L194.33357,65.2973702 C194.051854,64.8469587 194.162513,64.3990764 194.161479,63.9739571 C194.152171,60.6543593 194.157963,57.3347614 194.153619,54.0151635 C194.153412,53.5792951 194.153412,53.1392112 194.099841,52.7079797 C193.975116,51.705988 193.662581,51.382459 192.670782,51.144291 C192.505517,51.1048774 192.311501,51.1023481 192.186156,51.007081 C192.089355,50.9335229 192.079013,50.7417239 192,50.5166235 C192.745865,50.5166235 193.387276,50.4734161 194.021034,50.5263189 C195.054821,50.6127338 195.886525,51.1200527 196.535383,51.9433129 C197.367293,52.9990504 198.202514,54.052048 199.035666,55.1065209 C200.379506,56.8072088 201.720243,58.5108475 203.069875,60.2068986 C203.274853,60.464668 203.433086,60.7865109 203.771476,60.9152902 C204.104489,60.6823914 203.996932,60.3557008 203.997759,60.0779085 C204.00624,57.3697489 204.003137,54.6618001 204.003137,51.9536406 L204.003137,50.5731094 L204.882001,50.5731094 C205.030925,51.6417038 205.041061,64.2329912 204.899996,65.3930589 C204.699154,65.5648349 204.500381,65.5163582 204.340907,65.3422638 C204.107591,65.0874451 203.893098,64.8142896 203.678398,64.542188 C201.233135,61.4462151 198.790353,58.3481345 196.344262,55.2525832 C196.079921,54.9180942 195.799446,54.5966728 195.338399,54.0431957" id="Fill-13" fill="#FFFFFF"></path>
                <path d="M241.848986,64.296 C242.666699,64.4278888 245.261591,64.4506136 245.910505,64.3609887 C247.01249,64.2089236 247.863771,63.6682008 248.35367,62.5217663 C248.419271,62.368427 248.518632,62.2261315 248.625665,62.1037998 C248.665947,62.0579254 248.782187,62.0579254 248.847021,62.0851103 C248.907635,62.110596 248.969208,62.1923628 248.98839,62.2632982 C249.00949,62.3414545 249,62.4423357 248.974195,62.5217663 C248.771637,63.1412827 248.566394,63.7601619 248.352902,64.3754306 C248.11294,65.0667319 247.620356,65.3872153 246.984677,65.4783269 C246.827963,65.5008393 246.667412,65.4985031 246.508588,65.4987155 C244.481474,65.5 242.453975,65.5016888 240.42686,65.4961669 C240.238496,65.4955298 240.050133,65.4468945 239.792524,65.411002 C239.772191,64.9240116 239.739007,64.4950013 239.738431,64.0657786 C239.734211,60.677022 239.738048,57.288053 239.733636,53.8992963 C239.73306,53.4159164 239.731718,52.9285012 239.67705,52.4502185 C239.574045,51.549934 239.374172,51.3381898 238.575641,51.1614885 C238.388428,51.1200741 238.20064,51.0829074 238,51.0412807 C238.01266,50.8548099 238.021292,50.7309915 238.03376,50.5462198 C238.318031,50.5309283 238.589643,50.5039559 238.861447,50.5035311 C241.286005,50.5 243.710756,50.4960978 246.135506,50.5077787 C246.528921,50.5094778 246.930968,50.5443083 247.313258,50.6405171 C247.913068,50.7915202 248.29881,51.233061 248.349066,51.9233004 C248.396445,52.5770101 248.381291,53.2370913 248.369782,53.8937744 C248.36844,53.9723555 248.216329,54.1108282 248.137876,54.1076424 C248.048298,54.1040319 247.933592,53.9908327 247.883911,53.891863 C247.829627,53.7831237 247.834039,53.6370054 247.818118,53.5061785 C247.689218,52.4417232 247.097081,51.8876203 246.184035,51.6907428 C245.989533,51.6489037 245.792538,51.5953836 245.596118,51.5941093 C244.365808,51.5851893 243.135498,51.5896493 241.890802,51.5896493 C241.549369,52.5341091 241.737541,53.4649765 241.7174,54.3718448 C241.697451,55.2844474 241.643359,56.2066072 241.786454,57.189508 C243.567469,57.3940313 245.306092,57.1884461 247.092861,57.3150254 L247.092861,58.2921919 C246.48442,58.4242931 245.892858,58.3423139 245.308586,58.3569682 C244.75251,58.3709854 244.195667,58.3569682 243.639208,58.3607911 C243.049565,58.364614 242.459921,58.3750207 241.815227,58.3833035 C241.630699,59.0894715 241.726416,59.7459422 241.710687,60.3883957 C241.694766,61.0478398 241.690738,61.7089829 241.711646,62.368427 C241.732362,63.0155529 241.601543,63.6820055 241.848986,64.296" id="Fill-15" fill="#FFFFFF"></path>
                <path d="M218.026097,51.597213 C216.323348,51.597213 214.742702,51.5840197 213.16263,51.6087039 C212.85422,51.6133854 212.535683,51.7306353 212.243134,51.8572482 C211.782813,52.0559985 211.43504,52.413281 211.280453,52.9550565 C211.185102,53.2899955 211.118605,53.6353615 211.021343,53.9694493 C211.004146,54.0281806 210.898859,54.0860608 210.833699,54.0871248 C210.769113,54.087976 210.647583,54.0160513 210.647392,53.9762587 C210.646246,53.1884924 210.60822,52.3941295 210.689049,51.6157261 C210.7351,51.1726874 211.072363,50.8358332 211.477652,50.7060284 C211.81587,50.5977159 212.173006,50.5096188 212.522307,50.5077037 C215.256527,50.4936592 217.990747,50.502171 220.724966,50.5070653 C220.798916,50.5072781 220.872674,50.5451555 220.951018,50.5666478 C221.122994,50.9884071 220.79968,51.2190766 220.634966,51.4871981 C218.289411,55.31261 215.932391,59.1288717 213.581486,62.9500277 C213.341102,63.3409317 213.124031,63.7492849 212.912692,64.1199735 C213.133967,64.5400304 213.43416,64.4353353 213.687155,64.4366121 C215.708058,64.4451239 217.728962,64.4391656 219.750056,64.4440599 C220.098593,64.4449111 220.446939,64.4757663 220.82796,64.4947051 L220.82796,65.3188593 C220.774648,65.373122 220.747323,65.4061052 220.715412,65.4318533 C220.685412,65.4563247 220.650443,65.4910103 220.617768,65.4910103 C217.170806,65.4973941 213.723843,65.5014372 210.276881,65.4995221 C210.207899,65.4995221 210.138918,65.4263207 210,65.3477994 C210.025032,65.1728821 210.011847,64.9475324 210.091529,64.775807 C210.235989,64.4644882 210.432805,64.1827479 210.613188,63.8927086 C212.870462,60.2675366 215.131749,56.6455565 217.382335,53.0154902 C217.621381,52.6301189 217.944122,52.280497 218.026097,51.597213" id="Fill-17" fill="#FFFFFF"></path>
                <path d="M149.107642,32.9311012 C148.95731,32.6548757 148.855589,32.5168707 148.80398,32.3618308 C148.705258,32.0659827 148.645296,31.7571966 148.551071,31.4594077 C147.806906,29.1066389 146.053676,28.4761287 144.142405,28.6236215 C142.715751,28.7338098 141.810761,29.8167175 141.939678,31.1249614 C141.990645,31.6435581 142.215287,32.0771956 142.583621,32.4112107 C142.977011,32.7680829 143.401453,33.1005886 143.850093,33.3828518 C144.903059,34.0457069 145.984078,34.6630634 147.042398,35.3172932 C147.570915,35.6441924 148.087012,35.9941644 148.587476,36.3628964 C150.764291,37.9665571 150.279032,41.4669234 148.129628,42.7615824 C147.939892,42.8760834 147.744375,42.9925251 147.536652,43.063037 C145.304586,43.8188298 143.16332,43.5937092 141.140263,42.391341 C140.360122,41.9277306 139.939321,41.2286492 140.010633,40.2695148 C140.062242,39.5743148 139.944461,38.8640206 140.132269,37.9967457 C140.375541,38.2382543 140.538293,38.3279576 140.58562,38.4597092 C140.765504,38.9619178 140.875362,39.4908649 141.07088,39.9859577 C141.631305,41.4056837 142.693479,42.1974872 144.197227,42.3275137 C144.808834,42.3803437 145.451706,42.3917723 146.045753,42.2617457 C147.930256,41.8498872 148.534582,39.8639096 147.206649,38.4452618 C146.757153,37.9654789 146.190517,37.5816526 145.633946,37.2221928 C144.701117,36.6199306 143.725673,36.0847301 142.783636,35.4962684 C142.29495,35.1909324 141.816115,34.8607987 141.373042,34.4924979 C140.104858,33.4387007 139.79006,32.0312658 140.124345,30.4948825 C140.447495,29.0100354 141.453562,28.1056717 142.903773,27.7274518 C144.706043,27.2573724 146.431005,27.531226 148.052748,28.4075575 C148.977654,28.9073942 149.518806,29.6746155 149.420512,30.8069031 C149.374256,31.3395159 149.41987,31.8794603 149.391174,32.4144452 C149.384107,32.5496469 149.251549,32.678164 149.107642,32.9311012" id="Fill-19" fill="#FFFFFF"></path>
                <path d="M183.822289,51.5945188 C183.64057,52.6812877 183.63527,56.0825625 183.81131,57.2241052 C185.513033,57.3606147 187.235956,57.1916231 189.014909,57.3247358 L189.014909,58.2467592 C188.143037,58.4573618 187.280818,58.3219138 186.426549,58.3463284 C185.567738,58.370743 184.70779,58.3516359 183.869043,58.3516359 C183.639055,59.2757823 183.605551,62.988715 183.81131,64.3828958 C184.57188,64.3924494 185.348539,64.4141041 186.125388,64.4081597 C186.712757,64.4037013 187.302208,64.3937232 187.886358,64.3334297 C188.936921,64.2251562 189.732131,63.6564017 190.222016,62.5870414 C190.292621,62.4329109 190.353194,62.2494828 190.467147,62.151612 C190.559521,62.0724237 190.725718,62.1012967 191,62.0624456 C190.714171,62.9392488 190.491376,63.6789056 190.231669,64.4020029 C189.987484,65.0822154 189.487189,65.3904765 188.858177,65.4749723 C188.36356,65.5412102 182.512019,65.4645696 181.919918,65.3777385 C181.664754,65.0448504 181.7806,64.6308634 181.779464,64.2529676 C181.769242,60.7773875 181.777571,57.3018073 181.767728,53.8262272 C181.766214,53.3016313 181.720216,52.7740633 181.654722,52.2539258 C181.574652,51.6195703 181.265919,51.2155614 180.656592,51.1588771 C180.466166,51.1410438 180.275929,51.0796888 180.09421,51.0098417 C180.043858,50.9903101 179.995589,50.865477 180.000322,50.7932947 C180.004675,50.7202631 180.064113,50.6105035 180.120143,50.5907595 C180.266464,50.5393827 180.423765,50.5054145 180.576712,50.5049899 C183.165639,50.5003193 185.754567,50.4945871 188.343495,50.5102974 C188.689519,50.5124204 189.045953,50.589698 189.378158,50.7030668 C189.869178,50.8707846 190.191161,51.2939005 190.237537,51.8507661 C190.295082,52.5454151 190.253816,53.2515283 190.233941,53.9516971 C190.232048,54.0139013 190.073612,54.0703734 189.911011,54.1824683 C189.813716,53.8003265 189.72986,53.4795396 189.650736,53.1572666 C189.467124,52.4108162 189.031945,51.9528829 188.370942,51.7607505 C188.143604,51.6947249 187.911913,51.6047092 187.681735,51.6019493 C186.390584,51.5866636 185.099433,51.5945188 183.822289,51.5945188" id="Fill-21" fill="#FFFFFF"></path>
                <path d="M212.703769,42.4263775 C215.507713,42.4713608 218.097976,42.4152916 220.631105,42.4602749 C220.922488,42.7824067 220.875448,43.0687224 220.755086,43.3876564 C220.659672,43.4215538 220.550356,43.4948916 220.440659,43.4951048 C217.08461,43.5012873 213.728371,43.5015005 210.372323,43.4963839 C210.263959,43.4961707 210.155976,43.431787 210,43.3819002 C210.021711,43.2011142 210.002095,43.0105213 210.069703,42.8738657 C210.241296,42.5276433 210.446216,42.2008213 210.64828,41.8744256 C212.918593,38.2056191 215.194238,34.5412896 217.456933,30.8667269 C217.668519,30.5228496 217.998182,30.2254479 218.006371,29.6854347 C217.825066,29.6447152 217.680898,29.5852349 217.53673,29.5843821 C216.194082,29.57756 214.851434,29.5794787 213.509167,29.5835294 C213.351668,29.5839557 213.193788,29.6059144 213.037431,29.6285127 C211.857806,29.7999184 211.427016,30.2457011 211.132395,31.5909372 C211.104971,31.7160804 211.096401,31.8640351 211.028982,31.9548545 C210.973182,32.0303242 210.843488,32.0371463 210.725982,32.0821296 C210.514777,31.72674 210.609619,31.3645282 210.600668,31.0278994 C210.590384,30.6317902 210.598383,30.2299249 210.647328,29.8380796 C210.726363,29.2059678 211.07907,28.8004783 211.618795,28.6382398 C211.920082,28.5474204 212.241936,28.5067008 212.55484,28.5056349 C215.239755,28.4962545 217.92486,28.5003051 220.610156,28.5054217 C220.719853,28.5056349 220.82955,28.5574403 221,28.600505 C221,28.9959745 220.7568,29.2434895 220.591873,29.5133895 C218.250905,33.3420894 215.90308,37.1654595 213.558112,40.9913879 C213.313388,41.3906949 213.077806,41.7974636 212.703769,42.4263775" id="Fill-23" fill="#FFFFFF"></path>
                <path d="M199.769574,36.338933 C199.698646,38.406709 199.742398,40.33199 199.734688,42.328199 C200.026496,42.3695204 200.252001,42.4270296 200.477891,42.4293726 C201.396873,42.4398095 202.316047,42.4372535 203.235028,42.4310766 C203.514308,42.4291596 203.7959,42.4206397 204.071517,42.3784663 C205.183046,42.2089206 205.996213,41.584839 206.471894,40.4406185 C206.58773,40.1618053 206.613365,40.1747981 207,40.1496644 C206.914231,40.9439307 206.526439,42.2704768 206.2514,42.7277816 C205.991973,43.1591007 205.622877,43.3978705 205.168205,43.4715675 C204.971803,43.5033041 204.76962,43.4986181 204.569942,43.4988311 C202.532108,43.5005351 200.494274,43.5005351 198.45644,43.4977662 C198.299165,43.4975532 198.142082,43.4732715 197.996179,43.4609177 C197.680472,43.1160753 197.799392,42.696897 197.798235,42.3194661 C197.788598,38.8307863 197.796886,35.3421065 197.787827,31.8536396 C197.786285,31.3266848 197.750821,30.7958959 197.682206,30.274479 C197.591426,29.5862853 197.256638,29.1496412 196.571642,29.1332404 C196.38295,29.1287675 196.195414,29.0569875 196.037368,29.0226949 C195.956996,28.7594305 196.005181,28.5900978 196.192523,28.5587872 C196.466213,28.5132058 196.746842,28.5038339 197.024579,28.503408 C199.382168,28.499787 201.739756,28.497018 204.097345,28.5061769 C204.494966,28.5076679 204.897984,28.5319496 205.288281,28.6094805 C205.955738,28.7421777 206.349312,29.2269592 206.425637,29.9579653 C206.497721,30.646585 206.503889,31.3452155 206.400388,32.0743047 C206.229428,32.0408641 206.046711,32.0530049 206.024546,31.9927268 C205.935115,31.750549 205.895796,31.4860066 205.837203,31.2299841 C205.626539,30.3057896 205.0595,29.8259071 204.23631,29.6748921 C204.000204,29.6318667 203.760629,29.5916102 203.522403,29.5896933 C202.443448,29.5807474 201.364493,29.5820254 200.285923,29.5903323 C200.136357,29.5916102 199.987562,29.6516754 199.856307,29.68043 C199.698839,30.7556395 199.684576,33.8364298 199.832792,35.1966294 C200.042107,35.2206981 200.269155,35.2675575 200.496202,35.2690484 C201.734938,35.2765033 202.973674,35.2677705 204.21241,35.2765033 C204.523299,35.2786333 204.833802,35.3240017 205.181311,35.3527563 L205.181311,36.1851491 C205.055259,36.2362684 204.946169,36.3176333 204.8365,36.3189112 C203.637854,36.3329691 202.439593,36.334673 201.240947,36.33872 C200.80285,36.340211 200.364946,36.338933 199.769574,36.338933" id="Fill-25" fill="#FFFFFF"></path>
                <path d="M221.087429,50.520773 C221.862949,50.520773 222.66419,50.4655013 223.455019,50.535274 C224.345876,50.6138733 224.728022,51.0316685 224.849484,51.9437567 C224.918075,52.459696 224.927669,52.9863534 224.930323,53.5083873 C224.939713,55.4258742 224.919095,57.3437814 224.943592,59.2608479 C224.952982,59.999135 225.001363,60.7451979 225.122621,61.4715059 C225.361462,62.9043671 226.174543,64.3174734 228.323705,64.4042689 C228.828538,64.4248644 229.340924,64.3958625 229.842082,64.3298727 C231.352089,64.1310627 232.320315,63.240831 232.675718,61.7350448 C232.863729,60.9383336 232.956816,60.1010619 232.969677,59.2801825 C233.008667,56.8404516 232.986824,54.3994597 232.988662,51.9588882 C232.98907,51.529324 232.988662,51.0997599 232.988662,50.7006688 C233.510846,50.5361146 233.510846,50.5361146 233.937902,50.6369907 C233.955662,50.9558013 233.990774,51.2956277 233.991386,51.6354541 C233.995061,54.1197386 234.014046,56.6042333 233.980159,59.0878874 C233.967706,59.9980842 233.890338,60.9189991 233.728457,61.8132238 C233.360805,63.843776 232.130671,65.0360056 230.160537,65.3562872 C229.024102,65.5412268 227.878889,65.5569887 226.74572,65.3489317 C224.964006,65.0215046 223.756122,64.0011847 223.254964,62.1671308 C222.965905,61.109823 222.859549,60.0300283 222.855671,58.9369935 C222.849751,57.1502253 222.855875,55.3634571 222.849751,53.5766889 C222.848322,53.1849533 222.845668,52.7894349 222.793817,52.4031634 C222.678071,51.5392015 222.447191,51.3076067 221.610634,51.1308634 C221.448345,51.0966075 221.279931,51.0802152 221.125603,51.0232622 C221.065791,51.0011955 221.010674,50.893174 221.001079,50.8181474 C220.991893,50.7439614 221.043131,50.6617894 221.087429,50.520773" id="Fill-27" fill="#FFFFFF"></path>
                <g id="Group-31" transform="translate(263.000000, 50.500000)">
                    <mask id="mask-2" fill="white">
                        <use xlink:href="#path-1"></use>
                    </mask>
                    <g id="Clip-30"></g>
                    <path d="M6.29721739,3.57658333 C5.46026087,4.838875 3.79569565,8.61929167 3.63308696,9.55575 L8.56721739,9.55575 C8.60721739,9.43345833 8.67808696,9.33616667 8.65308696,9.275125 C7.8993913,7.43533333 7.13613043,5.59929167 6.29721739,3.57658333 M0.120695652,14.6605417 C0.210913043,14.3924167 0.262869565,14.1847083 0.34873913,13.9905417 C2.26243478,9.65845833 4.17982609,5.327625 6.09895652,0.997416667 C6.20395652,0.760125 6.31178261,0.520125 6.45330435,0.302 C6.65395652,-0.00695833333 7.157,0.0174166667 7.34504348,0.349708333 C7.51613043,0.652 7.65352174,0.972833333 7.79047826,1.291375 C9.24743478,4.683875 10.7006957,8.07783333 12.1576522,11.4705417 C12.3117826,11.8295 12.4798261,12.18325 12.6454783,12.5378333 C13.0096087,13.31825 13.5065652,13.9599167 14.4611304,14.118875 C14.5050435,14.1261667 14.5683043,14.132625 14.5861304,14.16075 C14.6706957,14.29325 14.7828696,14.4286667 14.800913,14.572625 C14.8093913,14.641375 14.6393913,14.7872083 14.5341739,14.8036667 C13.4704783,14.9703333 12.4676522,14.8215833 11.5774348,14.2024167 C10.865913,13.7074167 10.3654783,13.0499167 10.0285217,12.277 C9.80482609,11.763875 9.59286957,11.2459583 9.3896087,10.7630417 C8.30569565,10.6111667 4.61373913,10.58825 3.02786957,10.7234583 C2.84634783,11.1028333 2.63613043,11.5234583 2.44286957,11.95075 C2.102,12.70325 1.74873913,13.4511667 1.4443913,14.217 C1.21591304,14.791375 0.82373913,14.8872083 0.120695652,14.6605417" id="Fill-29" fill="#FFFFFF" mask="url(#mask-2)"></path>
                </g>
                <path d="M172.788742,32.1569218 C172.067914,33.3211009 170.487306,37.2129244 170.394669,38.0866942 L175.129879,38.0866942 C174.965077,37.1364563 173.424169,33.2450564 172.788742,32.1569218 M175.775645,39.2203708 L169.82541,39.2203708 C169.133532,40.5190574 168.720804,41.9577591 168.013417,43.3354557 L167,43.3354557 C167.120138,42.9772631 167.1983,42.6891838 167.310994,42.416144 C169.096312,38.0936844 170.885766,33.7729193 172.675427,29.452366 C172.775921,29.2104642 172.868558,28.9624195 172.996553,28.7361925 C173.167972,28.4332857 173.708282,28.4169753 173.873911,28.7147984 C174.021343,28.9795771 174.123078,29.2718929 174.237012,29.5555238 C175.606088,32.9626964 176.972681,36.3709281 178.342997,39.7774652 C178.538816,40.2640226 178.743319,40.7474026 178.957747,41.2254871 C179.293347,41.9736458 179.770177,42.5654792 180.607833,42.7529425 C180.725283,42.7792086 180.830326,42.8713516 180.934955,42.9421005 C180.967006,42.9634946 180.978792,43.0158149 180.999677,43.053943 C181.008362,43.3318547 180.841078,43.4343771 180.605972,43.463185 C179.004272,43.6593331 177.747064,43.0721598 176.866604,41.6902267 C176.6346,41.3265266 176.475588,40.9117772 176.300033,40.5127027 C176.125927,40.1161701 175.973118,39.7096818 175.775645,39.2203708" id="Fill-32" fill="#FFFFFF"></path>
                <path d="M155.259536,60.1129699 L160.168894,60.1129699 C160.129334,59.8951132 160.127044,59.7196 160.065622,59.5688576 C159.332519,57.7707466 158.657714,55.9465944 157.830083,54.1453076 C157.237104,54.9483495 155.601207,58.7505721 155.259536,60.1129699 L155.259536,60.1129699 Z M154.71153,61.2570876 C154.10127,62.6935863 153.538689,64.0180868 152.964865,65.3688401 L152.015016,65.3688401 C152.015016,65.2068768 151.977747,65.0682022 152.020638,64.9638258 C152.701689,63.3050245 153.391902,61.650034 154.082114,59.9946202 C155.277442,57.128186 156.469646,54.2602699 157.675592,51.3982818 C157.833831,51.0222727 157.861939,50.4730792 158.456792,50.5010258 C158.970235,50.5251616 158.99064,51.0174032 159.129932,51.3582673 C160.551582,54.8416443 161.960324,58.3303142 163.372397,61.8177138 C163.487328,62.101626 163.594972,62.3885023 163.7149,62.6700857 C164.134858,63.6554158 164.600205,64.5924745 165.797198,64.8037679 C165.883604,64.8190115 166.021022,65.0248003 165.997286,65.0933965 C165.949815,65.2324945 165.821142,65.4262154 165.703087,65.4442113 C164.096755,65.6902263 162.816062,65.1215549 161.905981,63.7587337 C161.642805,63.3645169 161.476863,62.9019156 161.279689,62.4645087 C161.102086,62.0707154 160.942182,61.6688768 160.76916,61.2570876 L154.71153,61.2570876 Z" id="Fill-34" fill="#FFFFFF"></path>
                <path d="M162.999491,28.5 C163.411647,28.5309145 163.647368,28.5485799 163.949303,28.5710822 C163.966824,28.8877976 163.992699,29.1395296 163.993106,29.3910512 C163.995551,31.9199375 164.012053,34.4492443 163.983123,36.9779203 C163.97314,37.8464692 163.897758,38.721958 163.763089,39.5795712 C163.418778,41.7719736 162.232022,42.9559761 160.121533,43.3450355 C158.940278,43.5626985 157.76921,43.5517627 156.596512,43.307812 C154.916311,42.9582894 153.793528,41.9637694 153.291322,40.2567449 C153.006908,39.2906157 152.88263,38.2994605 152.881611,37.2908503 C152.879778,35.3287289 152.884871,33.3666076 152.870813,31.4044863 C152.867757,30.9718943 152.8319,30.5323623 152.74898,30.1092339 C152.639778,29.5521429 152.332953,29.161401 151.728065,29.1233363 C151.55978,29.1128212 151.382734,29.1189199 151.227896,29.0636104 C151.129492,29.0284899 151.009084,28.8995745 151.000324,28.8028354 C150.992582,28.7174527 151.125621,28.5368029 151.195705,28.5372235 C152.077877,28.5420605 152.962494,28.538275 153.840795,28.6091469 C154.357874,28.6507868 154.668773,29.0623486 154.770845,29.5576107 C154.87536,30.0640189 154.921608,30.5910367 154.926294,31.1098527 C154.94626,33.2461044 154.921812,35.3831973 154.954817,37.5192387 C154.966022,38.2555073 155.037126,39.002922 155.186056,39.7221562 C155.507957,41.2748188 156.432098,42.1265434 157.94483,42.3801681 C158.840041,42.530324 159.724046,42.4295892 160.574232,42.15199 C161.559697,41.8302274 162.218576,41.1185641 162.555146,40.1032241 C162.873176,39.1442452 162.983192,38.1511973 162.986452,37.1440592 C162.99399,34.7457707 162.99562,32.3474822 162.999491,29.9494041 C163.000102,29.519546 162.999491,29.0898982 162.999491,28.5" id="Fill-36" fill="#FFFFFF"></path>
                <path d="M60.2910876,38.953193 C59.7535187,38.3764225 59.2920383,37.87244 58.8206602,37.3784605 C58.3734078,36.9098079 57.9280112,36.4381756 57.4595199,35.9927215 C56.969996,35.5274741 56.6107919,34.9051578 55.9047558,34.5620752 C55.534623,34.9379337 55.1259303,35.2635643 54.826731,35.6741143 C54.016769,36.7850892 54.1060546,38.1393294 55.0236541,39.1583616 C55.5921534,39.7900424 56.2950964,40.1656881 57.1378446,40.2523101 C58.3705209,40.3789442 59.380499,39.9317875 60.2910876,38.953193 M58.9864467,27.8687703 C58.8229284,28.2910259 58.7016816,28.6038867 58.5686812,28.9471822 C58.2548415,28.7598914 58.004306,28.6006942 57.7451099,28.4580978 C57.2656899,28.1939752 56.749566,28.2044039 56.2449893,28.3246531 C55.4247172,28.5200315 54.8910661,29.3828461 55.117476,30.2588563 C55.2574873,30.7998713 55.5133841,31.3345014 55.8218625,31.7976204 C56.2557118,32.4486688 56.749566,33.0677926 57.2840419,33.6339216 C58.3866047,34.8025736 59.530408,35.9299365 60.6643135,37.0668767 C60.8385543,37.2416105 61.0505301,37.3765451 61.3023029,37.574903 C62.0522601,36.4405167 62.5523003,35.2927221 62.7663381,34.0276579 C62.896864,33.2574245 62.814177,33.1722923 62.0386508,32.7470571 C61.9887498,32.7198148 61.9697792,32.6329799 61.8897728,32.491022 C62.1370092,32.4639926 62.3380563,32.422065 62.5391033,32.4231291 C63.5210379,32.428237 64.5027663,32.442071 65.4842885,32.4639926 C65.5412002,32.4652695 65.59605,32.5642357 65.6772937,32.6421317 C65.5527476,32.6974676 65.4455225,32.7721711 65.3292244,32.7926028 C64.5355524,32.9315811 64.0557201,33.4581236 63.7111563,34.1596128 C63.6725965,34.2381472 63.6247576,34.3119994 63.5888784,34.3918108 C63.0319264,35.6243119 62.4762117,36.8574516 61.8916286,38.153589 C62.1912403,38.5894658 62.6469471,38.919353 63.0675994,39.2777595 C63.5278426,39.6697932 63.9932408,40.0688503 64.5052407,40.3785186 C64.9531118,40.6492389 65.4690295,40.8001357 66,41.0227564 C65.8593701,41.1325769 65.8022522,41.2162192 65.7434845,41.2172834 C65.0174468,41.2309045 64.2912029,41.2330328 63.5651652,41.2362253 C63.4797975,41.236651 63.3826763,41.2519747 63.3115365,41.2164321 C63.0847142,41.1032063 62.8502624,40.9929601 62.6502463,40.8382323 C62.0704059,40.3893729 61.5062368,39.9194433 60.8752583,39.4086502 C60.4546059,39.7593948 60.0372528,40.113119 59.6135074,40.4589685 C58.7437468,41.1693965 57.7529455,41.5180128 56.642547,41.4992837 C55.9899173,41.4882165 55.3733729,41.3273167 54.8009558,41.0050914 C52.947611,39.9617965 52.4354048,37.674082 53.684165,35.9169538 C53.9846015,35.4944854 54.3708181,35.1339506 54.7370331,34.7653282 C54.9784958,34.5222759 55.2548067,34.3158303 55.5849363,34.03383 C55.3865698,33.7758795 55.206143,33.5515562 55.0364386,33.3189325 C54.7797169,32.9671238 54.4994882,32.6285105 54.2838008,32.2509493 C53.4678589,30.8237083 53.7707699,29.2425908 55.0749984,28.2731481 C56.2317924,27.4133131 57.4949867,27.259011 58.9864467,27.8687703" id="Fill-38" fill="#FFFFFF"></path>
                <path d="M146.778571,61.8809517 C148.69944,58.0506536 150.106409,54.3186753 151.839009,50.7040128 L153,50.7040128 C152.862858,51.07099 152.774428,51.3542596 152.653085,51.6241694 C150.705446,55.9552515 148.754297,60.2848724 146.802489,64.6142845 C146.695189,64.8520473 146.588108,65.0916888 146.458426,65.3190142 C146.319968,65.560952 145.92039,65.5607432 145.788075,65.315883 C145.643034,65.0474344 145.52564,64.7649998 145.402322,64.4865313 C143.849214,60.9820872 142.297861,57.4770169 140.744533,53.9725728 C140.585668,53.614363 140.413198,53.2615806 140.253893,52.9033708 C139.864409,52.0285123 139.313646,51.3285837 138.256225,51.1194193 C138.142781,51.0970833 138.0436,50.8845789 138.000592,50.7430485 C137.987865,50.7010903 138.183375,50.5464088 138.294405,50.5345103 C139.858924,50.3654252 141.18295,50.8098475 142.122977,52.0408284 C142.492054,52.5244951 142.769191,53.082267 143.021313,53.6335677 C144.07281,55.9320806 145.097537,58.2414483 146.135429,60.5458061 C146.294075,60.8977535 146.470495,61.2426034 146.778571,61.8809517" id="Fill-40" fill="#FFFFFF"></path>
                <path d="M251,50.5180105 C251.878097,50.5180105 252.594358,50.4704515 253.303132,50.5299003 C254.226919,50.6071838 254.566524,50.9717324 254.720872,51.9853349 C254.799582,52.5027519 254.819548,53.0354558 254.820892,53.5615779 C254.829914,56.6881613 254.824155,59.8145324 254.827611,62.9411158 C254.827995,63.3753046 254.853335,63.8094933 254.869653,64.3243625 C255.184877,64.3549362 255.448076,64.4012214 255.711467,64.402283 C257.383767,64.4090771 259.056067,64.4037692 260.728175,64.4075909 C261.120573,64.4084402 261.512971,64.4281857 261.93647,64.4398631 C261.964882,64.6751106 262.004237,64.8445397 261.99963,65.0124827 C261.996174,65.1328665 261.934166,65.2513395 261.902106,65.3585597 C260.994445,65.512702 254.69054,65.5530423 253.055291,65.4184332 C252.766368,65.1008066 252.876946,64.6850895 252.875986,64.3088634 C252.867539,60.8300457 252.876754,57.3514403 252.86466,53.872835 C252.862548,53.3040371 252.799388,52.7329038 252.73162,52.1677153 C252.659822,51.5702547 252.331927,51.2343688 251.784413,51.1594209 C251.589557,51.1326689 251.389519,51.0989105 251.210021,51.0190792 C251.140526,50.9880809 251.121137,50.8201379 251,50.5180105" id="Fill-42" fill="#FFFFFF"></path>
                <path d="M178,64.4084892 C177.975402,64.8505277 177.961457,65.1034554 177.947899,65.344896 C176.988188,65.5495356 169.95121,65.5544282 168.849721,65.3431942 C168.833452,64.9375314 168.801494,64.5091072 168.800913,64.0802576 C168.796458,60.6401006 168.805561,57.1999436 168.790841,53.7599994 C168.788323,53.1924543 168.712011,52.6221438 168.630857,52.0597041 C168.552414,51.5157713 168.225473,51.224128 167.728864,51.1515895 C167.494505,51.1175538 167.26247,51.0633094 167.057938,51.0235302 C166.92875,50.7082747 167.023655,50.5136331 167.262663,50.5091659 C167.983948,50.4957643 168.708331,50.4891699 169.426904,50.5470306 C170.110032,50.6019131 170.531879,51.0624585 170.639568,51.800182 C170.715299,52.319439 170.743771,52.851672 170.745514,53.3779488 C170.754811,56.5977247 170.747063,59.8172879 170.755004,63.0370638 C170.755973,63.4678279 170.664166,63.9179499 170.927578,64.4084892 L178,64.4084892 Z" id="Fill-44" fill="#FFFFFF"></path>
                <path d="M224.028562,78.7192531 C224.627235,78.7192531 225.073153,78.7273799 225.518474,78.7148924 C225.679195,78.7101352 225.841709,78.6673209 225.997452,78.6217315 C226.570832,78.4528526 226.879529,78.0223303 226.853041,77.4443363 C226.825756,76.8544494 226.480414,76.4086645 225.91022,76.3339376 C225.311547,76.2552464 224.703513,76.2282892 224.042901,76.3848788 C224.023583,76.690724 223.991716,76.9672335 223.991716,77.2439412 C223.991518,77.6839778 224.01243,78.1242126 224.028562,78.7192531 M223.998688,79.5347083 L223.998688,82.4504463 L223.133141,82.4504463 C222.978793,81.449264 222.952902,76.9081655 223.085741,75.6532684 C223.873018,75.4758662 225.797695,75.4449447 226.390593,75.6001468 C227.683137,75.9384993 228.239589,77.300036 227.535759,78.4276793 C227.408297,78.6324351 227.224872,78.8023051 227.062955,78.993384 C227.27964,79.344224 227.55468,79.6591871 227.677561,80.0248932 C227.805023,80.4040779 227.781323,80.8328163 227.830714,81.2391564 C227.87911,81.6353875 227.936468,82.0304294 228,82.5 C227.656251,82.4783946 227.343969,82.4585731 227.079286,82.4417249 C226.778356,81.9539185 226.859812,81.4912855 226.823366,81.0451042 C226.800264,80.7616572 226.769991,80.4706781 226.683755,80.2018989 C226.561671,79.821525 226.270898,79.5662245 225.867003,79.5430333 C225.298203,79.5101297 224.726217,79.5347083 223.998688,79.5347083" id="Fill-46" fill="#FFFFFF"></path>
                <path d="M166.000759,75.5232003 L167.009488,75.5232003 C167.046319,75.7237456 167.109714,75.9128873 167.1115,76.1026189 C167.121544,77.2012925 167.113285,78.2997694 167.119759,79.398443 C167.121544,79.723051 167.113509,80.0525745 167.172215,80.3710876 C167.337398,81.2700023 167.964645,81.7228021 168.982526,81.7165105 C170.046167,81.7098256 170.726093,81.1913571 170.848641,80.2625572 C170.891053,79.9410949 170.869847,79.6125545 170.870293,79.28716 C170.872302,78.0705186 170.871186,76.8538773 170.871186,75.5585907 C171.234364,75.5353903 171.53013,75.5165155 171.789958,75.5 C171.878129,75.6207204 171.966971,75.6857993 171.96764,75.7516647 C171.982819,77.1751429 172.020097,78.5994076 171.986167,80.0224927 C171.950006,81.5499792 170.953108,82.4203851 169.211995,82.4937217 C168.801495,82.5110237 168.369565,82.4962777 167.976475,82.4022967 C166.960603,82.160266 166.288043,81.5928409 166.090493,80.6508679 C166.048751,80.4515023 166.00567,80.248401 166.004777,80.0470693 C165.997411,78.5856447 166.000759,77.1246134 166.000759,75.5232003" id="Fill-48" fill="#FFFFFF"></path>
                <path d="M192.009049,78.4979227 C192.044318,78.9907173 192.027733,79.5441229 192.13396,80.0705171 C192.32458,81.0143813 193.013584,81.5741555 193.882921,81.5888691 C194.791306,81.604461 195.486818,81.1255016 195.739789,80.2057941 C196.045243,79.0965671 196.049862,77.9587913 195.740209,76.8495643 C195.468974,75.8778103 194.71678,75.3841373 193.761159,75.4568267 C192.905468,75.5218299 192.270207,76.1248664 192.105619,77.0922283 C192.030252,77.5349529 192.040749,77.9939282 192.009049,78.4979227 L192.009049,78.4979227 Z M191.015431,78.4792562 C191.015431,78.0710097 190.976593,77.6579319 191.022148,77.2553952 C191.198283,75.694879 192.339275,74.5748913 193.78992,74.5037392 C195.25841,74.431489 196.519484,75.4122468 196.832496,76.9281831 C197.054187,78.002932 197.060905,79.0989827 196.822209,80.1726337 C196.488624,81.6725387 195.240775,82.5841209 193.719802,82.493863 C192.300647,82.4095345 191.20983,81.352354 191.028446,79.8388334 C190.974913,79.3923756 191.020259,78.9327414 191.020259,78.4792562 L191.015431,78.4792562 Z" id="Fill-50" fill="#FFFFFF"></path>
                <path d="M262.041731,78.5779218 C262.071155,79.0111819 262.058634,79.5169081 262.148158,80.0017729 C262.324076,80.9541545 262.991017,81.5507929 263.834503,81.5887828 C264.794014,81.6318233 265.503944,81.1311477 265.763959,80.1427526 C266.044843,79.0759623 266.04213,77.9841381 265.766463,76.9171281 C265.509578,75.922804 264.793805,75.4089527 263.846815,75.4508953 C262.944899,75.4904223 262.278375,76.1292229 262.123534,77.1564862 C262.056548,77.6016044 262.06886,78.0596786 262.041731,78.5779218 M261,78.4799826 C261.02212,78.0267395 261.008556,77.5680064 261.073247,77.1217903 C261.289231,75.6360135 262.414851,74.5733954 263.807792,74.5037839 C265.267092,74.4310981 266.521677,75.4115879 266.833028,76.9265707 C267.05402,78.0014861 267.060489,79.0974825 266.823428,80.1710803 C266.492253,81.6715699 265.252484,82.5835462 263.741014,82.4939516 C262.330127,82.410286 261.245199,81.3533774 261.064273,79.8403709 C261.01106,79.3939352 261.056135,78.9343238 261.056135,78.480861 C261.037562,78.4806414 261.018781,78.4802022 261,78.4799826" id="Fill-52" fill="#FFFFFF"></path>
                <path d="M153.862363,76.825135 C153.652755,76.8514709 153.419724,76.8808794 153.140046,76.915994 C153.02253,76.6609744 152.932841,76.4131972 152.803112,76.19417 C152.34746,75.4245025 151.476396,75.1811146 150.734059,75.6002948 C150.103234,75.9562688 149.985317,76.9603261 150.55308,77.4258137 C150.844769,77.6650317 151.204726,77.8127324 151.547266,77.9657002 C151.891608,78.1193265 152.27719,78.1785823 152.59971,78.3701762 C152.957265,78.5826194 153.321426,78.844223 153.580883,79.1793477 C154.250948,80.044044 154.093192,81.2787602 153.281586,81.9555936 C152.231144,82.8312632 150.248578,82.6216731 149.396933,81.5344382 C149.120459,81.1817562 148.928669,80.7836447 149.025364,80.2907239 C149.713847,80.1331472 149.713847,80.1331472 150.053384,80.7254862 C150.545072,81.583818 151.669587,81.8969961 152.450562,81.3935409 C153.078986,80.988626 153.170076,80.0611624 152.586497,79.5566099 C152.303616,79.3121246 151.930046,79.1890042 151.590309,79.0292329 C151.097019,78.7974767 150.575502,78.6273905 150.106036,78.3495464 C149.42416,77.9463872 149.111049,77.2840386 149.191729,76.4204396 C149.267405,75.6110487 149.701035,75.0801602 150.346475,74.7764192 C152.047763,73.9760264 153.766668,75.02683 153.919619,76.4812317 C153.928228,76.5646288 153.892392,76.653732 153.862363,76.825135" id="Fill-54" fill="#FFFFFF"></path>
                <path d="M178.066688,76.3195427 C177.888204,77.634179 177.903109,80.7195942 178.082725,81.6779861 C178.218191,81.6941432 178.36611,81.7227137 178.514972,81.7274426 C178.748547,81.734733 178.983821,81.7410382 179.216453,81.7217285 C180.213017,81.6391697 180.901103,80.9987968 181.012042,79.9675009 C181.077134,79.3643681 181.075247,78.7440931 181.022985,78.1389899 C180.927706,77.0379426 180.234714,76.3798363 179.178153,76.3224983 C178.829299,76.3035827 178.478747,76.3195427 178.066688,76.3195427 M177.138046,82.4482069 C176.979561,81.4444963 176.950506,77.0107514 177.08767,75.6239993 C178.03801,75.4571082 179.008348,75.4543497 179.959631,75.6421267 C181.007891,75.8488194 181.823141,76.8072113 181.944457,77.9478632 C182.017096,78.6323726 182.016907,79.3373739 181.953136,80.0234596 C181.838801,81.2494289 180.951289,82.2026978 179.782468,82.4340202 C179.516252,82.4868264 179.237962,82.4909642 178.965708,82.4889938 C178.350639,82.4840678 177.731041,82.5364799 177.138046,82.4482069" id="Fill-56" fill="#FFFFFF"></path>
                <path d="M238.987802,81.726058 C239.4931,81.726058 239.881689,81.7540535 240.265376,81.7205377 C241.202251,81.6389169 241.89006,81.0105947 241.997907,80.0408058 C242.073701,79.3586611 242.073701,78.6520696 241.99489,77.9707135 C241.904389,77.1890073 241.457917,76.6026783 240.706381,76.399415 C240.152061,76.2497769 239.572477,76.2614088 238.987802,76.407301 L238.987802,81.726058 Z M238.142748,82.4553219 C237.980224,81.4526087 237.948925,77.0691391 238.088071,75.6273692 C239.036447,75.4552558 240.006128,75.4548615 240.955636,75.642747 C242.045985,75.8582337 242.855405,76.8670587 242.960424,78.0671207 C243.013593,78.6743477 243.011142,79.293601 242.965326,79.9018139 C242.863889,81.245008 241.941532,82.2678307 240.669992,82.4527589 C240.20919,82.5195933 239.735002,82.4959351 239.266848,82.4959351 C238.886177,82.4959351 238.50513,82.4695168 238.142748,82.4553219 L238.142748,82.4553219 Z" id="Fill-58" fill="#FFFFFF"></path>
                <path d="M218.05234,75.5384217 L218.964323,75.5384217 C218.974993,75.9185015 218.99184,76.2390768 218.99184,76.5596522 C218.992027,77.7861926 219.018608,79.0143094 218.974806,80.2390765 C218.930068,81.482759 218.20883,82.291192 217.04227,82.4588685 C216.663026,82.5134471 216.263752,82.5146293 215.885257,82.4568982 C214.787021,82.2896158 214.055113,81.4746806 214.022355,80.3003543 C213.979301,78.7492978 214.011685,77.1956799 214.011685,75.574085 C214.293404,75.5463031 214.543301,75.5214768 214.761937,75.5 C214.838872,75.6264962 214.912063,75.6907295 214.912811,75.756145 C214.927412,76.9413082 214.932653,78.1266684 214.941264,79.3118316 C214.943698,79.6389091 214.929658,79.9677599 214.959047,80.2924729 C215.0401,81.1889804 215.568159,81.7034378 216.405267,81.7280671 C217.323427,81.7552579 217.918313,81.2565633 218.021828,80.3464604 C218.058704,80.0233236 218.050281,79.6936847 218.051217,79.3668043 C218.054212,78.1406579 218.05234,76.9147085 218.05234,75.5384217" id="Fill-60" fill="#FFFFFF"></path>
                <path d="M258.962361,77.1190626 L258.249899,77.1190626 C258.182234,76.928254 258.100056,76.7352572 258.044643,76.5326325 C257.821103,75.7140373 257.282421,75.4094438 256.608033,75.4006911 C255.966063,75.3925949 255.485811,75.761083 255.226272,76.4518889 C255.11846,76.7383206 255.014229,77.0505728 255.001601,77.3560416 C254.970125,78.1249652 254.970125,78.8978275 255.00292,79.6667512 C255.015926,79.9720012 255.120533,80.2855662 255.232114,80.5695909 C255.524073,81.3122565 256.039571,81.6398258 256.741667,81.5884038 C257.392872,81.5404828 257.849941,81.2024102 258.047658,80.4544931 C258.092517,80.2860038 258.14548,80.1201404 258.203533,79.9229861 L258.909963,79.9229861 C259.115786,80.4223269 258.930508,80.8264823 258.735994,81.2172898 C258.470612,81.7498909 258.062925,82.1017489 257.571364,82.3021855 C255.884639,82.9912408 254.239757,81.817943 254.057872,79.7485888 C253.982856,78.8967335 253.974563,78.0164319 254.069935,77.1691717 C254.303087,75.0965352 255.983404,73.885382 257.850129,74.8201691 C258.614801,75.2030992 258.916372,75.840076 258.962361,77.1190626" id="Fill-62" fill="#FFFFFF"></path>
                <path d="M142.212983,79.328283 C142.090272,80.1317506 142.157558,80.8534828 142.165997,81.5948552 C142.775448,81.8206197 143.345668,81.712102 143.89764,81.7337262 C144.510741,81.757731 145.126122,81.7452326 145.737626,81.7845133 C145.938115,81.7974084 146.036877,81.9848842 145.987382,82.1608536 C145.957502,82.2667922 145.872425,82.390189 145.769558,82.44296 C145.658023,82.5002938 145.496993,82.4985083 145.357631,82.4987067 C144.080795,82.5010874 142.803959,82.500889 141.527351,82.4919616 C141.397797,82.4909696 141.268927,82.4276842 141.153515,82.3969342 C140.973325,81.426623 140.943446,76.8480478 141.108353,75.5940432 C141.278735,75.5640867 141.460521,75.5059593 141.642535,75.5051658 C143.008554,75.4972303 144.3748,75.5008012 145.823843,75.5008012 L145.823843,76.2739157 L142.343677,76.2739157 C141.988317,76.9932672 142.176489,77.6711558 142.196105,78.3932847 C143.244853,78.6535686 144.299531,78.3797944 145.284871,78.5690557 C145.424005,79.1540991 145.377703,79.254483 144.932931,79.2681717 C144.366133,79.2856298 143.798194,79.2705523 143.230711,79.2794798 C142.912529,79.2844394 142.594574,79.3092378 142.212983,79.328283" id="Fill-64" fill="#FFFFFF"></path>
                <path d="M159.455889,76.4681162 C158.671251,76.1068103 157.874456,76.4423228 157.077009,76.190738 C157.054213,76.0677234 156.963243,75.8937172 157.016435,75.7728851 C157.068542,75.6542355 157.26633,75.5135623 157.401807,75.5123718 C159.238127,75.4953085 161.075099,75.500864 162.968302,75.500864 C162.981111,75.7689169 162.990447,75.96078 163,76.160778 C162.231212,76.4445053 161.443101,76.1544289 160.627417,76.3917281 C160.486295,77.013944 160.568797,77.6657232 160.555987,78.3091691 C160.542092,79.0067812 160.552948,79.70479 160.552948,80.4026005 L160.552948,82.4267865 C160.184946,82.4547624 159.891629,82.4769844 159.587892,82.5 C159.534483,82.3347239 159.466093,82.2210346 159.465442,82.1069484 C159.45654,80.6291855 159.457408,79.1514226 159.455889,77.6736596 C159.455454,77.2655288 159.455889,76.8571996 159.455889,76.4681162" id="Fill-66" fill="#FFFFFF"></path>
                <path d="M208.8228,75.5 L209.946217,75.5 C209.96574,75.7778112 209.995849,76.0126395 209.996789,76.2474678 C210.001494,77.5119128 210.000553,78.7763578 209.997025,80.041 C209.996319,80.2854896 210.003846,80.5333311 209.959389,80.7732858 C209.830488,81.4635746 209.404267,81.9955367 208.632741,82.2792629 C207.84028,82.5706787 207.001716,82.5761995 206.223133,82.2800516 C205.849837,82.1380899 205.526407,81.8466741 205.267194,81.566694 C204.998336,81.2760669 204.893662,80.9118957 205.136175,80.4917284 L205.989794,80.4917284 C206.058008,80.649858 206.109756,80.8022697 206.18738,80.9446257 C206.531038,81.5730034 206.913743,81.757948 207.663864,81.6698134 C208.2498,81.6006071 208.672258,81.2443227 208.777402,80.6804192 C208.829386,80.4004392 208.819271,80.1113894 208.820447,79.826283 C208.824917,78.6842799 208.822564,77.5420797 208.8228,76.3998795 L208.8228,75.5 Z" id="Fill-68" fill="#FFFFFF"></path>
                <path d="M186.088343,75.5 L186.820314,75.5 C186.902456,75.5748283 186.941355,75.5972367 186.960113,75.6310495 C186.979069,75.6654625 186.984203,75.7112798 186.9844,75.7520952 C186.991311,77.8268789 186.997827,79.9016625 187,81.9762461 C187.000197,82.0960913 186.962285,82.2155365 186.946686,82.3079714 C186.693152,82.6076846 186.419477,82.4714331 186.161599,82.4544267 C185.985863,81.5326785 185.941436,77.4071203 186.088343,75.5" id="Fill-70" fill="#FFFFFF"></path>
                <path d="M233.092093,75.6067948 C233.195251,75.5712573 233.307122,75.5047485 233.42117,75.5005793 C233.576798,75.4946233 233.734209,75.5361168 233.876769,75.555176 C234.031803,76.6024406 234.042297,81.1780437 233.898351,82.353958 C233.649662,82.5491165 233.391074,82.5393884 233.126347,82.3799659 C232.977253,81.4551966 232.952899,76.9194987 233.092093,75.6067948" id="Fill-72" fill="#FFFFFF"></path>
                <path d="M247.879551,82.461245 C247.665072,82.4728916 247.435443,82.4853414 247.160556,82.5 C246.891376,81.7144578 247.048398,80.9257028 247.021047,80.1548193 C246.994286,79.4058233 247.008257,78.6552209 247.017111,77.9056225 C247.026163,77.1230924 246.977758,76.3375502 247.054104,75.5 L247.894899,75.5 C248.041492,76.702008 248.033228,81.3600402 247.879551,82.461245" id="Fill-74" fill="#FFFFFF"></path>
                <path d="M173.872146,25.5 L176,25.5 C175.899132,25.7405356 175.85559,25.9451579 175.740719,26.1017566 C175.251696,26.7674055 174.732478,27.4125921 174.242141,28.0776146 C173.941069,28.486024 173.563635,28.5983575 173,28.4141974 C173.077018,27.3996466 173.504558,26.4757143 173.872146,25.5" id="Fill-76" fill="#FFFFFF"></path>
                <path d="M232,74.4347668 C232.286407,74.1018033 232.555043,73.7899286 232.804523,73.5 L234,73.5 C232.86499,74.5698725 232.84745,74.5784452 232,74.4347668" id="Fill-78" fill="#FFFFFF"></path>
            </g>
        </g>
    </g>
</svg>